<svg id="PSF" xmlns="http://www.w3.org/2000/svg" viewBox="0 0 512 400"><defs><style>.cls-1{fill:#fff;}</style></defs><title>PSF</title><path class="cls-1" d="M193.47,8V365.1l80.78,25.63V91.24c0-14,6.27-23.41,16.37-20.17h0c13.19,3.67,15.76,16.58,15.76,30.62V221.31c50.37,24.3,90,0,90-64.23,0-65.85-23.19-95.08-91.61-118.57C277.86,29.44,227.82,14.37,193.47,8Z"/><path class="cls-1" d="M289.57,338.52l130-46.29c14.76-5.29,17-12.76,5-16.67s-33.64-2.81-48.39,2.5l-86.6,30.49V260l5-1.69s25-8.85,60.21-12.74,78.26.51,112.08,13.34c38.12,12,42.41,29.79,32.72,42s-33.42,20.94-33.42,20.94L289.57,385.29Z"/><path class="cls-1" d="M45.23,333.64c-39.12-11-45.64-34-27.81-47.2C33.91,274.21,62,265,62,265l115.82-41.18v46.93L94.43,300.63c-14.74,5.29-17,12.75-5,16.68s33.64,2.8,48.4-2.49l40-14.5v42c-2.53.46-5.36.91-8,1.34a262.21,262.21,0,0,1-124.57-10"/><path class="cls-1" d="M473.86,390.07a18.92,18.92,0,0,0,0-37.84,19,19,0,0,0-18.92,18.92,18.91,18.91,0,0,0,18.92,18.92Zm-15.74-18.92a15.76,15.76,0,1,1,4.61,11.12A15.61,15.61,0,0,1,458.12,371.15Z"/><path class="cls-1" d="M483.17,379.94a1.25,1.25,0,0,1-.61-.92,7.59,7.59,0,0,1-.17-1.61l-.11-2.68a4.76,4.76,0,0,0-.75-2.8,4.23,4.23,0,0,0-1.26-1.05,5.41,5.41,0,0,0,1.59-1.53,5.8,5.8,0,0,0,.83-3.21,5.19,5.19,0,0,0-3.12-5.18,9.62,9.62,0,0,0-4-.72h-9.77V381.3h3.66v-8.63h5.74a5.81,5.81,0,0,1,2.25.32,2.38,2.38,0,0,1,1.19,2.25l.17,3.35a13.13,13.13,0,0,0,.15,1.65,3,3,0,0,0,.27.82l.12.24h4.1v-1.22ZM479,366.39a2.73,2.73,0,0,1-.92,2.39,4.89,4.89,0,0,1-2.77.67h-5.83v-5.94h6.19a4.65,4.65,0,0,1,2,.36A2.52,2.52,0,0,1,479,366.39Z"/></svg>