<svg xmlns="http://www.w3.org/2000/svg" viewBox="0 0 1892 400"><defs><style>.cls-1{fill:#fff;}</style></defs><title>PS4</title><g id="レイヤー_2" data-name="レイヤー 2"><path class="cls-1" d="M1197.65,8.4l-249.19,0C876.19,8.42,840.8,53,840.8,111V287.19c0,35.87-17,61.7-52.95,61.7H553.62a2.67,2.67,0,0,0-2.67,2.68V387a2.7,2.7,0,0,0,2.7,2.69H814.9c72.29,0,107.72-44.45,107.72-102.42V110.9c0-35.92,17-61.78,52.92-61.78h222.11a2.66,2.66,0,0,0,2.65-2.67V11.09a2.69,2.69,0,0,0-2.65-2.69"/><path class="cls-1" d="M461.5,8.49H10.68A2.67,2.67,0,0,0,8,11.13V46.52a2.66,2.66,0,0,0,2.7,2.66H434.43c35.9,0,52.95,25.86,52.95,61.77s-17,61.73-52.95,61.73H99.23C47.21,172.68,8,216.4,8,274.41L8,387a2.66,2.66,0,0,0,2.68,2.68H87.13A2.68,2.68,0,0,0,89.81,387V274.41c0-35.92,20.71-61,50.39-61H461.5c72.28,0,107.66-44.4,107.66-102.38S533.78,8.49,461.5,8.49"/><path class="cls-1" d="M1789.2,308.19l-76.41-.05a2.77,2.77,0,0,1-2.77-2.69V49c0-39.39-27.25-52.29-65.56-28.64L1185,302.47c-18,11.08-24.09,23.61-19.74,32.86,3.77,8,13.68,13.52,33.57,13.52l426.71,0a2.74,2.74,0,0,1,2.42,2v36a2.73,2.73,0,0,0,2.66,2.76h76.72a2.75,2.75,0,0,0,2.67-2.76V351.65a2.77,2.77,0,0,1,2.69-2.76h76.47a2.72,2.72,0,0,0,2.75-2.69V310.84a2.72,2.72,0,0,0-2.75-2.65m-161.12-2.88a2.75,2.75,0,0,1-2.68,2.77H1267.73c-2.9,0-4.44-.74-4.85-1.83-.42-1.67.51-2.89,2.62-4.36l356-219.16c2.47-1.51,6.6-1.26,6.6,3.61Z"/><path class="cls-1" d="M1828.07,359.68a25.13,25.13,0,0,1,7.42-17.93,25.38,25.38,0,0,1,43.34,17.93,25.39,25.39,0,0,1-25.35,25.42,25.38,25.38,0,0,1-25.41-25.42Zm25.41,30.59a30.6,30.6,0,0,0,0-61.19,30.6,30.6,0,0,0-21.61,52.22,30.22,30.22,0,0,0,21.61,9"/><path class="cls-1" d="M1861.77,352c0,1.88-.5,3.17-1.5,3.9a8.18,8.18,0,0,1-4.47,1.06h-9.44v-9.64h10a7.22,7.22,0,0,1,3.28.62C1861.06,348.67,1861.77,350,1861.77,352Zm6.73,21.9a2.25,2.25,0,0,1-1-1.5c0-.55-.16-1.39-.22-2.6l-.2-4.35c-.08-2.11-.41-3.53-1.2-4.52a6.73,6.73,0,0,0-2-1.68,8.74,8.74,0,0,0,2.53-2.5,8.88,8.88,0,0,0,1.36-5.18c0-4.06-1.69-6.85-5-8.35a15.16,15.16,0,0,0-6.46-1.14h-15.8v34h5.9v-14h9.27a10.53,10.53,0,0,1,3.69.56c1.16.6,1.83,1.76,1.88,3.67l.29,5.4c.08,1.25.14,2.17.21,2.65a4.54,4.54,0,0,0,.42,1.29l.25.41h6.57v-2l-.44-.21"/></g></svg>